# xmcd
#
# Track frame offsets:
#	150
#	19122
#	43192
#	65132
#	99112
#	142857
#	171200
#
# Disc length: 2682 seconds
#
# Revision: 1
# Processed by: cddbd v1.5.2PL0 Copyright (c) Steve Scherf et al.
# Submitted via: audiograbber 1.82.02
#
DISCID=570a7807
DTITLE=Vibracore - The Emerald Sessions
DYEAR=1900
DGENRE=Blues
TTITLE0=James Marshall
TTITLE1=Close My Eyes (Pull My Finger)
TTITLE2=Seen The Light
TTITLE3=Hard Work, Worry and Pain
TTITLE4=Switchblade
TTITLE5=How'd Ya Been
TTITLE6=In Your Own "Timefill"
EXTD=
EXTT0=
EXTT1=
EXTT2=
EXTT3=
EXTT4=
EXTT5=
EXTT6=
PLAYORDER=
